<?xml version="1.0" encoding="utf-8"?>
<!-- Generator: Adobe Illustrator 22.0.1, SVG Export Plug-In . SVG Version: 6.00 Build 0)  -->
<svg version="1.1" id="Layer_1" xmlns="http://www.w3.org/2000/svg" xmlns:xlink="http://www.w3.org/1999/xlink" x="0px" y="0px"
	 viewBox="0 0 30 24" style="enable-background:new 0 0 30 24;" xml:space="preserve">
<style type="text/css">
	.st0{fill:#838383;}
</style>
<title>np_quotation-mark_1179866_000000 copy</title>
<desc>Created with Sketch.</desc>
<g>
	<path class="st0" d="M12.8,3.6c-2.9,1.7-6,5.4-6.5,8.5c0.2-0.1,0.9-0.2,1.6-0.2c3,0,5.4,2.4,5.4,5.7s-2.7,6.2-6.2,6.2
		c-3.7,0-7-3-7-8.2C0,9.3,3.5,3.7,8.4,0.2L12.8,3.6z M29.6,3.6c-2.9,1.7-6,5.4-6.5,8.5c0.2-0.1,0.9-0.2,1.6-0.2c3,0,5.4,2.4,5.4,5.7
		s-2.7,6.2-6.2,6.2c-3.7,0-7-3-7-8.2c0-6.3,3.5-11.9,8.4-15.4L29.6,3.6z"/>
</g>
</svg>
