<?xml version="1.0" encoding="utf-8"?>
<!-- Generator: Adobe Illustrator 22.0.1, SVG Export Plug-In . SVG Version: 6.00 Build 0)  -->
<svg version="1.1" id="Layer_1" xmlns="http://www.w3.org/2000/svg" xmlns:xlink="http://www.w3.org/1999/xlink" x="0px" y="0px"
	 viewBox="0 0 30 24" style="enable-background:new 0 0 30 24;" xml:space="preserve">
<style type="text/css">
	.st0{fill:#838383;}
</style>
<title>np_quotation-mark_1179866_000000 copy</title>
<desc>Created with Sketch.</desc>
<g>
	<path class="st0" d="M17.2,20.4c2.9-1.7,6-5.4,6.5-8.5c-0.2,0.1-0.9,0.2-1.6,0.2c-3,0-5.4-2.4-5.4-5.7s2.7-6.2,6.2-6.2
		c3.7,0,7,3,7,8.2c0,6.3-3.5,11.9-8.4,15.4L17.2,20.4z M0.4,20.4c2.9-1.7,6-5.4,6.5-8.5c-0.2,0.1-0.9,0.2-1.6,0.2
		c-3,0-5.4-2.4-5.4-5.7s2.7-6.2,6.2-6.2c3.7,0,7,3,7,8.2c0,6.3-3.5,11.9-8.4,15.4L0.4,20.4z"/>
</g>
</svg>
